<svg xmlns:dc="http://purl.org/dc/elements/1.1/" xmlns:cc="http://creativecommons.org/ns#" xmlns:rdf="http://www.w3.org/1999/02/22-rdf-syntax-ns#" xmlns:svg="http://www.w3.org/2000/svg" xmlns="http://www.w3.org/2000/svg" xmlns:sodipodi="http://sodipodi.sourceforge.net/DTD/sodipodi-0.dtd" xmlns:inkscape="http://www.inkscape.org/namespaces/inkscape" viewBox="0 0 24.000001 30.00000125" version="1.1" x="0px" y="0px"><g transform="translate(0,-1028.3622)"><path style="color:#000000;font-style:normal;font-variant:normal;font-weight:normal;font-stretch:normal;font-size:medium;line-height:normal;font-family:sans-serif;text-indent:0;text-align:start;text-decoration:none;text-decoration-line:none;text-decoration-style:solid;text-decoration-color:#000000;letter-spacing:normal;word-spacing:normal;text-transform:none;direction:ltr;block-progression:tb;writing-mode:lr-tb;baseline-shift:baseline;text-anchor:start;white-space:normal;clip-rule:nonzero;display:inline;overflow:visible;visibility:visible;opacity:1;isolation:auto;mix-blend-mode:normal;color-interpolation:sRGB;color-interpolation-filters:linearRGB;solid-color:#000000;solid-opacity:1;fill:#000000;fill-opacity:1;fill-rule:nonzero;stroke:none;stroke-width:1.00008845;stroke-linecap:butt;stroke-linejoin:round;stroke-miterlimit:4;stroke-dasharray:none;stroke-dashoffset:0;stroke-opacity:1;color-rendering:auto;image-rendering:auto;shape-rendering:auto;text-rendering:auto;enable-background:accumulate" d="M 4.53125 3 C 3.6920987 3 3 3.6920501 3 4.53125 L 3 19.470703 C 3 20.309903 3.6920987 21 4.53125 21 L 19.46875 21 C 20.307902 21 21 20.309903 21 19.470703 L 21 4.53125 C 21 3.6920501 20.307902 3 19.46875 3 L 4.53125 3 z M 4.53125 4.0019531 L 19.46875 4.0019531 C 19.771164 4.0019531 20 4.22875 20 4.53125 L 20 19.470703 C 20 19.773203 19.771164 20 19.46875 20 L 4.53125 20 C 4.2288362 20 4 19.773203 4 19.470703 L 4 4.53125 C 4 4.22875 4.2288362 4.0019531 4.53125 4.0019531 z M 8 6 L 8 8 L 6 8 L 6 9 L 8 9 L 8 11 L 9 11 L 9 9 L 11 9 L 11 8 L 9 8 L 9 6 L 8 6 z M 13 8 L 13 9 L 18 9 L 18 8 L 13 8 z M 6.8535156 13.146484 L 6.1464844 13.853516 L 7.7929688 15.5 L 6.1464844 17.146484 L 6.8535156 17.853516 L 8.5 16.207031 L 10.146484 17.853516 L 10.853516 17.146484 L 9.2070312 15.5 L 10.853516 13.853516 L 10.146484 13.146484 L 8.5 14.792969 L 6.8535156 13.146484 z M 13 14 L 13 15 L 18 15 L 18 14 L 13 14 z M 13 16 L 13 17 L 18 17 L 18 16 L 13 16 z " transform="translate(0,1028.3622)"/></g><text x="0" y="39.000001" fill="#000000" font-size="5px" font-weight="bold" font-family="'Helvetica Neue', Helvetica, Arial-Unicode, Arial, Sans-serif">Created by Juan Carlos Altamirano</text><text x="0" y="44.000001" fill="#000000" font-size="5px" font-weight="bold" font-family="'Helvetica Neue', Helvetica, Arial-Unicode, Arial, Sans-serif">from the Noun Project</text></svg>