<svg xmlns="http://www.w3.org/2000/svg" xmlns:xlink="http://www.w3.org/1999/xlink" version="1.1" x="0px" y="0px" viewBox="0 0 100 125" enable-background="new 0 0 100 100" xml:space="preserve"><path d="M42.3,23.2c-1.9,0-3.4-1.5-3.4-3.4c0-1.9,1.5-3.4,3.4-3.4c1.9,0,3.4,1.5,3.4,3.4C45.7,21.7,44.2,23.2,42.3,23.2z M41.7,25.4  c6.7,0,12.2,5.5,12.2,12.2c0,3.5-1.5,6.7-3.9,8.9c-1.7-0.9-3.2-1.1-4.4-1.1c-0.3,0-0.7,0-1,0.1c-0.8,0.1-3.3,0.6-5.1,3.2  c-0.2,0.3-0.4,0.6-0.5,0.9c-5.5-1.2-9.5-6.1-9.5-11.9C29.5,30.8,35,25.4,41.7,25.4z M33.3,37.5c0,0.2,0,0.3,0,0.5  c0,0.5,0.1,0.6,0.6,0.6c0.2,0,0.4,0,0.7,0c0.7,0,0.6,0,0.9,0.6c0.6,1.5,1.6,2.5,3.2,2.6c1.5,0.1,2.5-0.7,3.2-1.9  c0.4-0.7,0.7-1.6,1.1-2.3c0.1-0.3,0.3-0.6,0.5-0.9c0.6-0.8,1.7-0.6,2.1,0.3c0.2,0.5,0.3,1,0.2,1.5c-0.1,0.8-0.3,1.6-0.7,2.3  c-0.2,0.4-0.2,0.5,0.3,0.7c0.4,0.1,0.8,0.2,1.2,0.3c0.5,0.1,0.7,0.1,0.9-0.4c0.3-0.7,0.5-1.4,0.6-2.1c0.1-0.6,0.1-0.6,0.7-0.6  c0.3,0,0.5,0,0.8,0c0.3,0,0.5-0.2,0.5-0.5c0-0.4,0-0.8,0-1.2c0-0.3-0.2-0.5-0.5-0.5c-0.4,0-0.7,0-1.1,0c-0.4,0-0.6-0.1-0.6-0.5  c-0.2-0.8-0.7-1.5-1.3-2c-1.8-1.5-4.4-0.9-5.6,1.2c-0.4,0.7-0.6,1.4-0.9,2c-0.2,0.4-0.4,0.8-0.6,1.1c-0.5,0.7-1.4,0.5-1.7-0.2  c-0.1-0.2-0.1-0.5-0.1-0.7c0-0.9,0.1-1.8,0.5-2.6c0.2-0.4,0.1-0.5-0.3-0.7c-0.4-0.1-0.9-0.3-1.4-0.4c-0.3-0.1-0.5,0-0.6,0.3  c-0.2,0.5-0.4,1.1-0.5,1.6c-0.1,0.7-0.1,0.7-0.9,0.7C33.3,36.5,33.3,36.5,33.3,37.5z M56,5.1H27.4c-3.1,0-5.6,2.5-5.6,5.6v53.1  c0,3.1,2.5,5.6,5.6,5.6h9.2h3.3l-0.5-4.4c0-0.1-0.1-0.3-0.1-0.4h-2.2h-3.7c0.2-0.7,0.2-1.5,0.1-2.3c-0.4-2.3-2.2-4.2-4.5-4.6  c-0.8-0.2-1.6-0.1-2.4,0.1V16.3c0.3,0.1,0.7,0.1,1,0.1c3.1,0,5.6-2.5,5.6-5.6c0-0.3,0-0.7-0.1-1h17.1c-0.1,0.3-0.1,0.7-0.1,1  c0,3.1,2.5,5.6,5.6,5.6c0.4,0,0.7,0,1-0.1v40.4l0,0v11.6c-2-1.4-4.1-5.9-4.1-5.9s-1.1-11.9-7.1-11.9c-0.2,0-0.3,0-0.5,0  c0,0-4.6,0.4-0.8,13.5L46,78.4c0,0,1.9,7.9,7.1,13.3v1.6c0,0.9,0.7,1.6,1.6,1.6h17c0.8,0,1.5-0.6,1.6-1.4c0.6-6,3.2-29,4.6-30.2  c0,0,1.7-5.5-1.8-8.3c-1-0.8-11.5-12.5-14.4-14.1V10.6C61.6,7.5,59.1,5.1,56,5.1z"/><text x="0" y="115" fill="#000000" font-size="5px" font-weight="bold" font-family="'Helvetica Neue', Helvetica, Arial-Unicode, Arial, Sans-serif">Created by Gregor Cresnar</text><text x="0" y="120" fill="#000000" font-size="5px" font-weight="bold" font-family="'Helvetica Neue', Helvetica, Arial-Unicode, Arial, Sans-serif">from the Noun Project</text></svg>