<svg xmlns="http://www.w3.org/2000/svg" xmlns:xlink="http://www.w3.org/1999/xlink" xml:space="preserve" version="1.1" style="shape-rendering:geometricPrecision;text-rendering:geometricPrecision;image-rendering:optimizeQuality;" viewBox="0 0 4.421 5.52625" x="0px" y="0px" fill-rule="evenodd" clip-rule="evenodd"><defs><style type="text/css">
   
    .fil0 {fill:none}
    .fil1 {fill:black;fill-rule:nonzero}
   
  </style></defs><g><g><path class="fil0" d="M0 0c1.474,0 2.948,0 4.421,0 0,1.474 0,2.948 0,4.421 -1.473,0 -2.947,0 -4.421,0 0,-1.473 0,-2.947 0,-4.421z"/><path class="fil1" d="M1.431 1.042c0.036,0 0.069,-0.015 0.092,-0.038 0.024,-0.024 0.038,-0.056 0.038,-0.092l0 -0.52c0,-0.035 -0.014,-0.068 -0.038,-0.091 -0.023,-0.024 -0.056,-0.039 -0.092,-0.039 -0.035,0 -0.068,0.015 -0.091,0.039 -0.024,0.023 -0.039,0.056 -0.039,0.091l0 0.52c0,0.036 0.015,0.068 0.039,0.092 0.023,0.023 0.056,0.038 0.091,0.038zm1.559 0c0.036,0 0.068,-0.015 0.092,-0.038l0 0c0.023,-0.024 0.038,-0.056 0.038,-0.092l0 -0.52c0,-0.036 -0.015,-0.068 -0.038,-0.091l0 0c-0.024,-0.024 -0.056,-0.039 -0.092,-0.039 -0.036,0 -0.068,0.015 -0.092,0.039 -0.023,0.023 -0.038,0.056 -0.038,0.091l0 0.52c0,0.036 0.015,0.068 0.038,0.092 0.024,0.023 0.056,0.038 0.092,0.038zm0 0.259c-0.107,0 -0.205,-0.043 -0.275,-0.114 -0.071,-0.07 -0.115,-0.168 -0.115,-0.275l0 -0.13 -0.779 0 0 0.13c0,0.107 -0.044,0.205 -0.114,0.275 -0.071,0.071 -0.168,0.114 -0.276,0.114 -0.107,0 -0.204,-0.043 -0.275,-0.114 -0.07,-0.07 -0.114,-0.168 -0.114,-0.275l0 -0.13 -0.568 0c-0.059,0.004 -0.113,0.028 -0.151,0.067l-0.001 0c-0.037,0.037 -0.06,0.088 -0.06,0.145l0 0.567 3.897 0 0 -0.567c0,-0.057 -0.023,-0.107 -0.06,-0.144l0 0c-0.039,-0.039 -0.092,-0.064 -0.152,-0.068l-0.568 0 0 0.13c0,0.107 -0.043,0.204 -0.114,0.275l0 0c-0.07,0.071 -0.168,0.114 -0.275,0.114zm-0.39 -0.779l0 -0.13c0,-0.107 0.044,-0.204 0.115,-0.275 0.07,-0.07 0.168,-0.114 0.275,-0.114 0.107,0 0.205,0.044 0.275,0.114l0 0c0.071,0.071 0.114,0.169 0.114,0.275l0 0.13 0.568 0 0.006 0.001c0.129,0.006 0.245,0.059 0.329,0.144l0 0c0.084,0.084 0.136,0.198 0.136,0.327l0 2.953c0,0.13 -0.053,0.247 -0.138,0.333l0 0c-0.085,0.085 -0.203,0.138 -0.333,0.138l-3.473 0c-0.13,0 -0.247,-0.053 -0.333,-0.138l0 0c-0.085,-0.086 -0.138,-0.203 -0.138,-0.333l0 -2.953c0,-0.129 0.052,-0.243 0.136,-0.327l0 -0.001c0.085,-0.084 0.202,-0.137 0.33,-0.143l0.005 -0.001 0.568 0 0 -0.13c0,-0.107 0.044,-0.204 0.114,-0.275 0.071,-0.07 0.168,-0.114 0.275,-0.114 0.108,0 0.205,0.044 0.276,0.114 0.07,0.071 0.114,0.168 0.114,0.275l0 0.13 0.779 0zm1.039 2.598l0 0.649 -0.649 0 -0.26 0 -0.39 0 -0.259 0 -0.39 0 -0.259 0 -0.65 0 0 -0.649 0 -0.26 0 -0.649 0.13 0 0.52 0 0.129 0 0.13 0 0.39 0 0.13 0 0.129 0 0.39 0 0.13 0 0.13 0 0.649 0 0 0.649 0 0.26zm-0.649 0l0 0.39 0.39 0 0 -0.39 -0.39 0zm-0.65 0l0 0.39 0.39 0 0 -0.39 -0.39 0zm1.04 -0.65l-0.39 0 0 0.39 0.39 0 0 -0.39zm-0.65 0l-0.39 0 0 0.39 0.39 0 0 -0.39zm-1.039 1.04l0.39 0 0 -0.39 -0.39 0 0 0.39zm-0.649 -0.39l0 0.39 0.39 0 0 -0.39 -0.39 0zm1.039 -0.65l-0.39 0 0 0.39 0.39 0 0 -0.39zm-0.649 0l-0.39 0 0 0.39 0.39 0 0 -0.39zm2.727 -0.649l-3.897 0 0 2.126c0,0.059 0.024,0.112 0.062,0.15l0.001 0c0.038,0.038 0.091,0.062 0.149,0.062l3.473 0c0.058,0 0.111,-0.024 0.15,-0.062l0 0c0.038,-0.038 0.062,-0.091 0.062,-0.15l0 -2.126z"/></g></g><text x="0" y="19.421" fill="#000000" font-size="5px" font-weight="bold" font-family="'Helvetica Neue', Helvetica, Arial-Unicode, Arial, Sans-serif">Created by Deemak Daksina</text><text x="0" y="24.421" fill="#000000" font-size="5px" font-weight="bold" font-family="'Helvetica Neue', Helvetica, Arial-Unicode, Arial, Sans-serif">from the Noun Project</text></svg>