<?xml version="1.0" ?><svg data-name="Layer 1" id="Layer_1" viewBox="0 0 100 100" xmlns="http://www.w3.org/2000/svg"><defs><style>.cls-1{fill:#4d4d4d;}</style></defs><title/><path class="cls-1" d="M50,4.25A41.54684,41.54684,0,0,0,8.5,45.75v8.5a41.5,41.5,0,0,0,83,0v-8.5A41.54684,41.54684,0,0,0,50,4.25Zm0,6A35.37521,35.37521,0,1,1,14.50317,45.625,35.53863,35.53863,0,0,1,50,10.25Zm0,79.5A35.55587,35.55587,0,0,1,15.48621,62.5351a38.48012,38.48012,0,0,0,69.02759,0A35.55587,35.55587,0,0,1,50,89.75Z"/><path class="cls-1" d="M35.20007,44.42871A9.24125,9.24125,0,0,0,42.039,41.85724a9.76342,9.76342,0,0,0,2.57141-7.22217q0-4.64914-2.54395-7.13971a9.39586,9.39586,0,0,0-6.86639-2.4895,10.85924,10.85924,0,0,0-3.74774.62909,8.25386,8.25386,0,0,0-2.98218,1.86041A8.5621,8.5621,0,0,0,26.50079,30.532a11.11134,11.11134,0,0,0-.71155,4.10309q0,4.65115,2.4895,7.22217A9.18056,9.18056,0,0,0,35.20007,44.42871ZM31.15381,32.36218a3.607,3.607,0,0,1,.8136-1.29346,3.2814,3.2814,0,0,1,1.19806-.73639,5.8581,5.8581,0,0,1,2.03461-.32648,4.38434,4.38434,0,0,1,3.36865,1.0625,4.92277,4.92277,0,0,1,1.04169,3.56671c0,2.5799-.83282,3.41254-1.10742,3.68707a4.24766,4.24766,0,0,1-3.30292,1.10657c-2.31384,0-3.077-.78888-3.33-1.05035a5.3069,5.3069,0,0,1-1.08081-3.74329A6.2377,6.2377,0,0,1,31.15381,32.36218Z"/><path class="cls-1" d="M61.05267,48.18573a8.25386,8.25386,0,0,0-2.98218,1.86041,8.5621,8.5621,0,0,0-1.96936,3.03662,11.11134,11.11134,0,0,0-.71155,4.10309q0,4.65115,2.4895,7.22217a9.18056,9.18056,0,0,0,6.92133,2.57147A9.24125,9.24125,0,0,0,71.63934,64.408a9.76342,9.76342,0,0,0,2.57141-7.22217q0-4.64914-2.54395-7.13971a9.39586,9.39586,0,0,0-6.86639-2.4895A10.85924,10.85924,0,0,0,61.05267,48.18573Zm8.15808,9.00012c0,2.5799-.83282,3.41254-1.10742,3.68707a4.24766,4.24766,0,0,1-3.30292,1.10657c-2.31384,0-3.077-.78888-3.33-1.05035a5.3069,5.3069,0,0,1-1.08081-3.74329,6.2377,6.2377,0,0,1,.36456-2.27289,3.607,3.607,0,0,1,.8136-1.29346,3.28165,3.28165,0,0,1,1.198-.73639,5.85869,5.85869,0,0,1,2.03467-.32648,4.38434,4.38434,0,0,1,3.36865,1.0625A4.92277,4.92277,0,0,1,69.21075,57.18585Z"/><path class="cls-1" d="M39.16345,66.97949a7.2136,7.2136,0,0,0,6.353-3.79657l20.1391-37.44171a6.28931,6.28931,0,0,0-1.89941-.582A15.2536,15.2536,0,0,0,61.55,25.00586a9.36579,9.36579,0,0,0-2.84863.36768,5.36745,5.36745,0,0,0-1.93066,1.07275,7.26554,7.26554,0,0,0-1.37891,1.6543q-0.583.95068-1.19434,2.11377l-19.853,36.76514h4.819Z"/></svg>